<svg version="1.1" xmlns="http://www.w3.org/2000/svg" xmlns:xlink="http://www.w3.org/1999/xlink" width="376.03236" height="271.10773" viewBox="0,0,376.03236,271.10773"><g transform="translate(-52.38552,-19.06198)"><g data-paper-data="{&quot;isPaintingLayer&quot;:true}" fill-rule="nonzero" stroke-linejoin="miter" stroke-miterlimit="10" stroke-dasharray="" stroke-dashoffset="0" style="mix-blend-mode: normal"><path d="M66.92955,208.20421c-16.5736,-10.03638 -14.45635,-22.84081 -14.45635,-22.84081l102.45506,15.36955l-6.42518,23.04572c0,0 -55.77496,0.04822 -81.57353,-15.57447z" fill="#1da1f2" stroke="none" stroke-width="0" stroke-linecap="butt"/><path d="M92.32634,286.47953c-19.21934,2.45563 -25.52911,-8.88558 -25.52911,-8.88558l89.76913,-51.71815l9.30973,22.03899c0,0 -43.63281,34.74229 -73.54975,38.56474z" fill="#1da1f2" stroke="none" stroke-width="0" stroke-linecap="butt"/><path d="M110.06245,146.83256c1.46151,-7.20292 0.65694,-34.49116 -5.82406,-64.2218c-4.35341,-19.97069 -25.2402,-72.01413 1.85392,-62.36823c27.09412,9.6459 110.49021,57.14847 110.49021,57.14847c0,0 -95.77526,79.82718 -107.421,87.5154c-2.44261,1.61255 -0.99351,-8.73726 0.90093,-18.07384z" data-paper-data="{&quot;index&quot;:null}" fill="#1da1f2" stroke="none" stroke-width="0" stroke-linecap="butt"/><path d="M315.62367,86c0,14.71724 -33.85787,26.64793 -75.62366,26.64793c-41.76579,0 -75.62366,-11.93069 -75.62366,-26.64793c0,-14.71724 33.85787,-26.64793 75.62366,-26.64793c41.76579,0 75.62366,11.93069 75.62366,26.64793z" fill="#1da1f2" stroke="none" stroke-width="0" stroke-linecap="butt"/><path d="M375.14151,180c0,60.84505 -60.50491,110.16971 -135.14151,110.16971c-74.63659,0 -135.14151,-49.32467 -135.14151,-110.16971c0,-60.84505 60.50493,-110.16971 135.14151,-110.16971c74.6366,0 135.14151,49.32466 135.14151,110.16971z" fill="#1da1f2" stroke="none" stroke-width="0" stroke-linecap="butt"/><path d="M413.87386,208.29309c-25.79857,15.62269 -81.57353,15.57447 -81.57353,15.57447l-6.42518,-23.04572l102.45506,-15.36955c0,0 2.11725,12.80443 -14.45635,22.84081z" data-paper-data="{&quot;index&quot;:null}" fill="#1da1f2" stroke="none" stroke-width="0" stroke-linecap="butt"/><path d="M314.92733,248.00368l9.30973,-22.03899l89.76913,51.71815c0,0 -6.30977,11.34121 -25.52911,8.88558c-29.91694,-3.82245 -73.54975,-38.56474 -73.54975,-38.56474z" data-paper-data="{&quot;index&quot;:null}" fill="#1da1f2" stroke="none" stroke-width="0" stroke-linecap="butt"/><path d="M370.87122,164.9064c-11.64574,-7.68821 -107.421,-87.5154 -107.421,-87.5154c0,0 83.39609,-47.50257 110.49021,-57.14847c27.09412,-9.6459 6.20733,42.39754 1.85392,62.36823c-6.481,29.73064 -7.28557,57.01888 -5.82405,64.2218c1.89444,9.33658 3.34354,19.68639 0.90092,18.07384z" data-paper-data="{&quot;index&quot;:null}" fill="#1da1f2" stroke="none" stroke-width="0" stroke-linecap="butt"/><path d="M122.04358,121.31793c0.89241,-4.39818 -1.34379,-29.78536 -5.30117,-47.93924c-2.65824,-12.19434 -16.15837,-42.47987 0.38562,-36.58997c16.54399,5.8899 63.76882,34.25598 63.76882,34.25598c0,0 -20.81554,11.94745 -40.42564,30.00781c-10.24212,9.4327 -18.86084,22.40045 -18.42764,20.26542z" data-paper-data="{&quot;index&quot;:null}" fill="#f2f2f2" stroke="none" stroke-width="0" stroke-linecap="butt"/><path d="M340.0772,101.20091c-19.6101,-18.06036 -40.42565,-30.38102 -40.42565,-30.38102c0,0 46.47843,-27.24647 63.02243,-33.13637c16.54399,-5.8899 3.79027,23.64923 1.13203,35.84357c-3.95738,18.15388 -6.19359,43.54106 -5.30117,47.93924c0.4332,2.13502 -8.18552,-10.83272 -18.42764,-20.26542z" data-paper-data="{&quot;index&quot;:null}" fill="#f2f2f2" stroke="none" stroke-width="0" stroke-linecap="butt"/><g><path d="M224.51221,193.4352c0,-3.30312 0.38383,-7.05786 2.84754,-9.31546c2.76325,-2.53206 7.85409,-3.37334 12.26705,-3.37334c4.34691,0 9.75804,0.79411 12.51538,3.26029c2.5377,2.26973 2.59922,6.06994 2.59922,9.42851c0,7.00783 -6.76704,12.6888 -15.1146,12.6888c-8.34756,0 -15.11459,-5.68096 -15.11459,-12.68879z" fill="#f2f2f2" stroke="none" stroke-width="0" stroke-linecap="butt"/><path d="M239.87415,204.15037v25.75079" fill="none" stroke="#f2f2f2" stroke-width="5" stroke-linecap="round"/><path d="M239.87415,230.27436c0,0 8.25641,10.16967 16.27524,11.91241c23.64232,5.13821 34.47995,-16.764 34.47995,-16.764" fill="none" stroke="#f2f2f2" stroke-width="5" stroke-linecap="round"/><path d="M239.27615,230.79596c0,0 -8.25641,10.16967 -16.27523,11.91241c-23.64232,5.13821 -34.47995,-16.764 -34.47995,-16.764" data-paper-data="{&quot;index&quot;:null}" fill="none" stroke="#f2f2f2" stroke-width="5" stroke-linecap="round"/></g></g></g></svg>