<svg version="1.1" xmlns="http://www.w3.org/2000/svg" xmlns:xlink="http://www.w3.org/1999/xlink" width="376.03236" height="271.10772" viewBox="0,0,376.03236,271.10772"><g transform="translate(-52.38551,-19.06199)"><g data-paper-data="{&quot;isPaintingLayer&quot;:true}" fill="#1da1f2" fill-rule="nonzero" stroke="none" stroke-width="0" stroke-linecap="butt" stroke-linejoin="miter" stroke-miterlimit="10" stroke-dasharray="" stroke-dashoffset="0" style="mix-blend-mode: normal"><path d="M375.14152,180c0,60.84505 -60.50491,110.16971 -135.14151,110.16971c-74.63659,0 -135.14151,-49.32467 -135.14151,-110.16971c0,-60.84505 60.50493,-110.16971 135.14151,-110.16971c74.6366,0 135.14151,49.32466 135.14151,110.16971z"/><path d="M66.92955,208.20421c-16.5736,-10.03638 -14.45635,-22.84081 -14.45635,-22.84081l102.45506,15.36955l-6.42518,23.04572c0,0 -55.77496,0.04822 -81.57353,-15.57447z"/><path d="M92.32633,286.47953c-19.21934,2.45563 -25.52911,-8.88558 -25.52911,-8.88558l89.76913,-51.71815l9.30973,22.03899c0,0 -43.63281,34.74229 -73.54975,38.56474z"/><path d="M110.06244,146.83256c1.46151,-7.20292 0.65694,-34.49116 -5.82406,-64.2218c-4.35341,-19.97069 -25.2402,-72.01413 1.85392,-62.36823c27.09412,9.6459 110.49021,57.14847 110.49021,57.14847c0,0 -95.77526,79.82718 -107.421,87.5154c-2.44261,1.61255 -0.99351,-8.73726 0.90093,-18.07384z" data-paper-data="{&quot;index&quot;:null}"/><path d="M315.62366,86c0,14.71724 -33.85787,26.64793 -75.62366,26.64793c-41.76579,0 -75.62366,-11.93069 -75.62366,-26.64793c0,-14.71724 33.85787,-26.64793 75.62366,-26.64793c41.76579,0 75.62366,11.93069 75.62366,26.64793z"/><path d="M413.87385,208.29309c-25.79857,15.62269 -81.57353,15.57447 -81.57353,15.57447l-6.42518,-23.04572l102.45506,-15.36955c0,0 2.11725,12.80443 -14.45635,22.84081z" data-paper-data="{&quot;index&quot;:null}"/><path d="M314.92732,248.00368l9.30973,-22.03899l89.76913,51.71815c0,0 -6.30977,11.34121 -25.52911,8.88558c-29.91694,-3.82245 -73.54975,-38.56474 -73.54975,-38.56474z" data-paper-data="{&quot;index&quot;:null}"/><path d="M370.87121,164.9064c-11.64574,-7.68821 -107.421,-87.5154 -107.421,-87.5154c0,0 83.39609,-47.50257 110.49021,-57.14847c27.09412,-9.6459 6.20733,42.39754 1.85392,62.36823c-6.481,29.73064 -7.28557,57.01888 -5.82405,64.2218c1.89444,9.33658 3.34354,19.68639 0.90092,18.07384z" data-paper-data="{&quot;index&quot;:null}"/></g></g></svg>